<svg width="275" height="515" viewBox="0 0 275 515" fill="none" xmlns="http://www.w3.org/2000/svg">
<path d="M230.364 0C252.507 0 270.459 17.0521 270.459 38.0833L270.459 102.413L271.907 102.498C273.469 102.59 274.727 103.55 274.727 104.644V139.815C274.727 140.873 273.538 141.813 272.044 141.951L271.907 141.961L270.459 142.046L270.459 476.917C270.459 497.74 252.867 514.659 231.027 514.995L230.364 515H44.6278C22.4848 515 4.53244 497.948 4.53244 476.917L4.53214 195.846L2.87482 195.659C1.2871 195.479 0 194.442 0 193.352L0 158.181C0 157.087 1.29944 156.127 2.91122 156.035L4.53214 155.944V149.522L2.91122 149.43C1.3034 149.339 0 148.375 0 147.285L0 112.114C0 111.02 1.29003 109.986 2.87482 109.807L4.53214 109.619V88.6766L3.02249 88.5729C1.64585 88.4781 0.529865 87.6285 0.529865 86.679V70.7166C0.529865 69.7654 1.64926 68.9172 3.02249 68.8226L4.53214 68.7182L4.53244 38.0833C4.53244 17.26 22.1252 0.341391 43.9647 0.00510183L44.6278 0H230.364ZM265.942 470.423H263.531L263.532 476.046C263.532 493.793 248.544 508.211 229.934 508.498L229.369 508.502H45.8462C26.9784 508.502 11.6837 493.972 11.6837 476.046L11.6833 470.67H9.04959L9.0499 476.917C9.0499 495.391 24.6626 510.405 44.0395 510.704L44.6278 510.708H230.364C250.015 510.708 265.942 495.58 265.942 476.917L265.942 470.423ZM229.369 8.3994H45.8462C27.911 8.3994 13.3777 22.2081 13.3777 39.2459V476.046C13.3777 493.083 27.914 506.893 45.8462 506.893H229.369C247.304 506.893 261.838 493.084 261.838 476.046V39.2459C261.838 22.2092 247.301 8.3994 229.369 8.3994ZM137.496 459.192C149.838 459.192 159.843 468.69 159.843 480.409C159.843 492.009 150.037 501.435 137.865 501.623L137.496 501.625C125.154 501.625 115.149 492.127 115.149 480.409C115.149 468.69 125.154 459.192 137.496 459.192ZM137.496 461.337C126.401 461.337 117.408 469.876 117.408 480.409C117.408 490.941 126.401 499.48 137.496 499.48C148.59 499.48 157.584 490.941 157.584 480.409C157.584 469.876 148.59 461.337 137.496 461.337ZM137.496 463.278C147.461 463.278 155.54 470.947 155.54 480.409C155.54 489.87 147.461 497.539 137.496 497.539C127.531 497.539 119.452 489.87 119.452 480.409C119.452 470.947 127.531 463.278 137.496 463.278ZM137.496 464.351C128.154 464.351 120.581 471.54 120.581 480.409C120.581 489.277 128.154 496.466 137.496 496.466C146.838 496.466 154.411 489.277 154.411 480.409C154.411 471.54 146.838 464.351 137.496 464.351ZM265.942 462.002H263.531V469.432H265.942V462.002ZM11.6833 462.25H9.04959V469.184H11.6833V462.25ZM265.942 50.6116H263.531V461.011H265.942V50.6116ZM11.6833 50.6116H9.04959V460.763H11.6833V50.6116ZM252.287 61.0928C254.16 61.0928 255.678 62.5311 255.678 64.3116V449.698C255.678 451.475 254.157 452.917 252.287 452.917H23.2262C21.3536 452.917 19.8356 451.478 19.8356 449.698V64.3116C19.8356 62.5339 21.3571 61.0928 23.2262 61.0928H252.287ZM252.287 63.7751H23.2262C22.9366 63.7751 22.6957 63.9839 22.6628 64.2494L22.659 64.3116V449.698C22.659 449.995 22.9111 450.234 23.2262 450.234H252.287C252.599 450.234 252.855 449.992 252.855 449.698V64.3116C252.855 64.0142 252.603 63.7751 252.287 63.7751ZM4.53214 158.093L3.04569 158.178C2.74462 158.195 2.47712 158.277 2.29903 158.385L2.25873 158.412V193.173L2.26987 193.183C2.27902 193.191 2.28921 193.199 2.30045 193.208C2.47312 193.347 2.73671 193.462 3.03076 193.512L3.14234 193.528L4.53214 193.686V158.093ZM4.53214 111.78L3.14234 111.938C2.80394 111.976 2.49423 112.101 2.30002 112.257L2.26953 112.283L2.25873 112.292V147.051L2.30127 147.08C2.45788 147.175 2.68197 147.25 2.93539 147.279L3.04569 147.288L4.53214 147.373V111.78ZM270.459 104.563V139.895L271.768 139.819C272.03 139.804 272.266 139.73 272.425 139.632L272.469 139.602V104.855L272.427 104.827C272.269 104.73 272.033 104.656 271.768 104.64L270.459 104.563ZM4.53214 70.3318L3.14499 70.4278C2.81232 70.4507 2.51131 70.5595 2.31875 70.7057C2.28774 70.7292 2.26287 70.7512 2.24395 70.7703L2.22372 70.7921V86.6031L2.24391 86.6254C2.26276 86.6445 2.28753 86.6664 2.31842 86.6899C2.48926 86.8198 2.74588 86.9202 3.0351 86.957L3.14499 86.9678L4.53214 87.0629V70.3318ZM263.531 49.6208H265.942V41.4473H263.531V49.6208ZM11.6833 41.4473H9.04959V49.6208H11.6833V41.4473ZM230.364 4.29167H44.6278C24.9771 4.29167 9.0499 19.42 9.0499 38.0833L9.04959 40.457H11.6833L11.6837 39.2459C11.6837 21.4986 26.6711 7.08095 45.2811 6.79437L45.8462 6.79002H229.369C248.237 6.79002 263.532 21.3204 263.532 39.2459L263.531 40.457H265.942L265.942 38.0833C265.942 19.6091 250.329 4.59464 230.952 4.29619L230.364 4.29167ZM94.7104 30.3809C97.1598 30.3809 99.1454 32.266 99.1454 34.5914C99.1454 36.8721 97.2354 38.7292 94.8512 38.7998L94.7104 38.8019C92.2609 38.8019 90.2753 36.9168 90.2753 34.5914C90.2753 32.266 92.2609 30.3809 94.7104 30.3809ZM156.282 32.053C157.757 32.053 158.953 33.191 158.953 34.5914C158.953 35.994 157.759 37.1298 156.282 37.1298H118.71C117.235 37.1298 116.039 35.9919 116.039 34.5914C116.039 33.1888 117.233 32.053 118.71 32.053H156.282ZM94.7104 32.5268C93.508 32.5268 92.534 33.4515 92.534 34.5914C92.534 35.6957 93.4481 36.5981 94.5983 36.6534L94.7104 36.6561C95.9127 36.6561 96.8867 35.7314 96.8867 34.5914C96.8867 33.4515 95.9127 32.5268 94.7104 32.5268ZM156.282 33.6624H118.71C118.169 33.6624 117.733 34.0772 117.733 34.5914C117.733 35.1034 118.171 35.5205 118.71 35.5205H156.282C156.823 35.5205 157.259 35.1056 157.259 34.5914C157.259 34.0794 156.821 33.6624 156.282 33.6624ZM137.496 17.4607C139.104 17.4607 140.409 18.6987 140.409 20.2262C140.409 21.7536 139.104 22.9917 137.496 22.9917C135.887 22.9917 134.583 21.7536 134.583 20.2262C134.583 18.6987 135.887 17.4607 137.496 17.4607ZM137.496 18.5336C136.511 18.5336 135.713 19.2915 135.713 20.2262C135.713 21.1609 136.511 21.9188 137.496 21.9188C138.481 21.9188 139.279 21.1609 139.279 20.2262C139.279 19.2915 138.481 18.5336 137.496 18.5336Z" fill="white"/>
</svg>
